<svg viewBox="0 0 50 50" xml:space="preserve" xmlns="http://www.w3.org/2000/svg"><path fill="none" d="M0 0h50v50H0z"></path><ellipse cx="35" cy="6" fill="none" rx="14" ry="5" stroke="#ffffff" stroke-linecap="round" stroke-linejoin="round" stroke-miterlimit="10" stroke-width="2" class="stroke-000000"></ellipse><path d="M21 7v6c0 2.761 6.266 5 14 5s14-2.239 14-5V7" fill="none" stroke="#ffffff" stroke-linecap="round" stroke-linejoin="round" stroke-miterlimit="10" stroke-width="2" class="stroke-000000"></path><path d="M28.55 24.439c1.93.358 4.124.561 6.45.561 7.734 0 14-2.239 14-5v-6M21 14v4.27" fill="none" stroke="#ffffff" stroke-linecap="round" stroke-linejoin="round" stroke-miterlimit="10" stroke-width="2" class="stroke-000000"></path><path d="M29.025 31.523c1.812.306 3.837.477 5.975.477 7.734 0 14-2.238 14-5v-6" fill="none" stroke="#ffffff" stroke-linecap="round" stroke-linejoin="round" stroke-miterlimit="10" stroke-width="2" class="stroke-000000"></path><path d="M28.948 38.51c1.831.314 3.884.49 6.052.49 7.734 0 14-2.238 14-5v-6" fill="none" stroke="#ffffff" stroke-linecap="round" stroke-linejoin="round" stroke-miterlimit="10" stroke-width="2" class="stroke-000000"></path><ellipse cx="15" cy="23" fill="none" rx="14" ry="5" stroke="#ffffff" stroke-linecap="round" stroke-linejoin="round" stroke-miterlimit="10" stroke-width="2" class="stroke-000000"></ellipse><path d="M1 24v6c0 2.762 6.266 5 14 5s14-2.238 14-5v-6" fill="none" stroke="#ffffff" stroke-linecap="round" stroke-linejoin="round" stroke-miterlimit="10" stroke-width="2" class="stroke-000000"></path><path d="M1 31v6c0 2.762 6.266 5 14 5s14-2.238 14-5v-6" fill="none" stroke="#ffffff" stroke-linecap="round" stroke-linejoin="round" stroke-miterlimit="10" stroke-width="2" class="stroke-000000"></path><path d="M1 38v6c0 2.762 6.266 5 14 5s14-2.238 14-5v-6" fill="none" stroke="#ffffff" stroke-linecap="round" stroke-linejoin="round" stroke-miterlimit="10" stroke-width="2" class="stroke-000000"></path></svg>